<?xml version="1.0" encoding="utf-8" standalone="no"?>
<!DOCTYPE svg PUBLIC "-//W3C//DTD SVG 1.1//EN"
  "http://www.w3.org/Graphics/SVG/1.1/DTD/svg11.dtd">
<svg xmlns:xlink="http://www.w3.org/1999/xlink" width="720pt" height="432pt" viewBox="0 0 720 432" xmlns="http://www.w3.org/2000/svg" version="1.1">
 <metadata>
  <rdf:RDF xmlns:dc="http://purl.org/dc/elements/1.1/" xmlns:cc="http://creativecommons.org/ns#" xmlns:rdf="http://www.w3.org/1999/02/22-rdf-syntax-ns#">
   <cc:Work>
    <dc:type rdf:resource="http://purl.org/dc/dcmitype/StillImage"/>
    <dc:date>2026-02-24T16:42:25.609503</dc:date>
    <dc:format>image/svg+xml</dc:format>
    <dc:creator>
     <cc:Agent>
      <dc:title>Matplotlib v3.10.0, https://matplotlib.org/</dc:title>
     </cc:Agent>
    </dc:creator>
   </cc:Work>
  </rdf:RDF>
 </metadata>
 <defs>
  <style type="text/css">*{stroke-linejoin: round; stroke-linecap: butt}</style>
 </defs>
 <g id="figure_1">
  <g id="patch_1">
   <path d="M 0 432 
L 720 432 
L 720 0 
L 0 0 
z
" style="fill: #ffffff"/>
  </g>
  <g id="axes_1">
   <g id="patch_2">
    <path d="M 78.8625 368.45 
L 709.2 368.45 
L 709.2 10.8 
L 78.8625 10.8 
z
" style="fill: #ffffff"/>
   </g>
   <g id="matplotlib.axis_1">
    <g id="xtick_1">
     <g id="line2d_1">
      <path d="M 106.584149 368.45 
L 106.584149 10.8 
" clip-path="url(#p9044cc13f7)" style="fill: none; stroke: #b0b0b0; stroke-opacity: 0.4; stroke-width: 0.8; stroke-linecap: square"/>
     </g>
     <g id="line2d_2">
      <defs>
       <path id="mc2563ebd8e" d="M 0 0 
L 0 3.5 
" style="stroke: #000000; stroke-width: 0.8"/>
      </defs>
      <g>
       <use xlink:href="#mc2563ebd8e" x="106.584149" y="368.45" style="stroke: #000000; stroke-width: 0.8"/>
      </g>
     </g>
     <g id="text_1">
      <!-- 2005 -->
      <g transform="translate(111.551024 421.26) rotate(-90) scale(0.18 -0.18)">
       <defs>
        <path id="DejaVuSans-32" d="M 1228 531 
L 3431 531 
L 3431 0 
L 469 0 
L 469 531 
Q 828 903 1448 1529 
Q 2069 2156 2228 2338 
Q 2531 2678 2651 2914 
Q 2772 3150 2772 3378 
Q 2772 3750 2511 3984 
Q 2250 4219 1831 4219 
Q 1534 4219 1204 4116 
Q 875 4013 500 3803 
L 500 4441 
Q 881 4594 1212 4672 
Q 1544 4750 1819 4750 
Q 2544 4750 2975 4387 
Q 3406 4025 3406 3419 
Q 3406 3131 3298 2873 
Q 3191 2616 2906 2266 
Q 2828 2175 2409 1742 
Q 1991 1309 1228 531 
z
" transform="scale(0.015625)"/>
        <path id="DejaVuSans-30" d="M 2034 4250 
Q 1547 4250 1301 3770 
Q 1056 3291 1056 2328 
Q 1056 1369 1301 889 
Q 1547 409 2034 409 
Q 2525 409 2770 889 
Q 3016 1369 3016 2328 
Q 3016 3291 2770 3770 
Q 2525 4250 2034 4250 
z
M 2034 4750 
Q 2819 4750 3233 4129 
Q 3647 3509 3647 2328 
Q 3647 1150 3233 529 
Q 2819 -91 2034 -91 
Q 1250 -91 836 529 
Q 422 1150 422 2328 
Q 422 3509 836 4129 
Q 1250 4750 2034 4750 
z
" transform="scale(0.015625)"/>
        <path id="DejaVuSans-35" d="M 691 4666 
L 3169 4666 
L 3169 4134 
L 1269 4134 
L 1269 2991 
Q 1406 3038 1543 3061 
Q 1681 3084 1819 3084 
Q 2600 3084 3056 2656 
Q 3513 2228 3513 1497 
Q 3513 744 3044 326 
Q 2575 -91 1722 -91 
Q 1428 -91 1123 -41 
Q 819 9 494 109 
L 494 744 
Q 775 591 1075 516 
Q 1375 441 1709 441 
Q 2250 441 2565 725 
Q 2881 1009 2881 1497 
Q 2881 1984 2565 2268 
Q 2250 2553 1709 2553 
Q 1456 2553 1204 2497 
Q 953 2441 691 2322 
L 691 4666 
z
" transform="scale(0.015625)"/>
       </defs>
       <use xlink:href="#DejaVuSans-32"/>
       <use xlink:href="#DejaVuSans-30" transform="translate(63.623047 0)"/>
       <use xlink:href="#DejaVuSans-30" transform="translate(127.246094 0)"/>
       <use xlink:href="#DejaVuSans-35" transform="translate(190.869141 0)"/>
      </g>
     </g>
    </g>
    <g id="xtick_2">
     <g id="line2d_3">
      <path d="M 136.698441 368.45 
L 136.698441 10.8 
" clip-path="url(#p9044cc13f7)" style="fill: none; stroke: #b0b0b0; stroke-opacity: 0.4; stroke-width: 0.8; stroke-linecap: square"/>
     </g>
     <g id="line2d_4">
      <g>
       <use xlink:href="#mc2563ebd8e" x="136.698441" y="368.45" style="stroke: #000000; stroke-width: 0.8"/>
      </g>
     </g>
     <g id="text_2">
      <!-- 2006 -->
      <g transform="translate(141.665316 421.26) rotate(-90) scale(0.18 -0.18)">
       <defs>
        <path id="DejaVuSans-36" d="M 2113 2584 
Q 1688 2584 1439 2293 
Q 1191 2003 1191 1497 
Q 1191 994 1439 701 
Q 1688 409 2113 409 
Q 2538 409 2786 701 
Q 3034 994 3034 1497 
Q 3034 2003 2786 2293 
Q 2538 2584 2113 2584 
z
M 3366 4563 
L 3366 3988 
Q 3128 4100 2886 4159 
Q 2644 4219 2406 4219 
Q 1781 4219 1451 3797 
Q 1122 3375 1075 2522 
Q 1259 2794 1537 2939 
Q 1816 3084 2150 3084 
Q 2853 3084 3261 2657 
Q 3669 2231 3669 1497 
Q 3669 778 3244 343 
Q 2819 -91 2113 -91 
Q 1303 -91 875 529 
Q 447 1150 447 2328 
Q 447 3434 972 4092 
Q 1497 4750 2381 4750 
Q 2619 4750 2861 4703 
Q 3103 4656 3366 4563 
z
" transform="scale(0.015625)"/>
       </defs>
       <use xlink:href="#DejaVuSans-32"/>
       <use xlink:href="#DejaVuSans-30" transform="translate(63.623047 0)"/>
       <use xlink:href="#DejaVuSans-30" transform="translate(127.246094 0)"/>
       <use xlink:href="#DejaVuSans-36" transform="translate(190.869141 0)"/>
      </g>
     </g>
    </g>
    <g id="xtick_3">
     <g id="line2d_5">
      <path d="M 166.812732 368.45 
L 166.812732 10.8 
" clip-path="url(#p9044cc13f7)" style="fill: none; stroke: #b0b0b0; stroke-opacity: 0.4; stroke-width: 0.8; stroke-linecap: square"/>
     </g>
     <g id="line2d_6">
      <g>
       <use xlink:href="#mc2563ebd8e" x="166.812732" y="368.45" style="stroke: #000000; stroke-width: 0.8"/>
      </g>
     </g>
     <g id="text_3">
      <!-- 2007 -->
      <g transform="translate(171.779607 421.26) rotate(-90) scale(0.18 -0.18)">
       <defs>
        <path id="DejaVuSans-37" d="M 525 4666 
L 3525 4666 
L 3525 4397 
L 1831 0 
L 1172 0 
L 2766 4134 
L 525 4134 
L 525 4666 
z
" transform="scale(0.015625)"/>
       </defs>
       <use xlink:href="#DejaVuSans-32"/>
       <use xlink:href="#DejaVuSans-30" transform="translate(63.623047 0)"/>
       <use xlink:href="#DejaVuSans-30" transform="translate(127.246094 0)"/>
       <use xlink:href="#DejaVuSans-37" transform="translate(190.869141 0)"/>
      </g>
     </g>
    </g>
    <g id="xtick_4">
     <g id="line2d_7">
      <path d="M 196.927024 368.45 
L 196.927024 10.8 
" clip-path="url(#p9044cc13f7)" style="fill: none; stroke: #b0b0b0; stroke-opacity: 0.4; stroke-width: 0.8; stroke-linecap: square"/>
     </g>
     <g id="line2d_8">
      <g>
       <use xlink:href="#mc2563ebd8e" x="196.927024" y="368.45" style="stroke: #000000; stroke-width: 0.8"/>
      </g>
     </g>
     <g id="text_4">
      <!-- 2008 -->
      <g transform="translate(201.893899 421.26) rotate(-90) scale(0.18 -0.18)">
       <defs>
        <path id="DejaVuSans-38" d="M 2034 2216 
Q 1584 2216 1326 1975 
Q 1069 1734 1069 1313 
Q 1069 891 1326 650 
Q 1584 409 2034 409 
Q 2484 409 2743 651 
Q 3003 894 3003 1313 
Q 3003 1734 2745 1975 
Q 2488 2216 2034 2216 
z
M 1403 2484 
Q 997 2584 770 2862 
Q 544 3141 544 3541 
Q 544 4100 942 4425 
Q 1341 4750 2034 4750 
Q 2731 4750 3128 4425 
Q 3525 4100 3525 3541 
Q 3525 3141 3298 2862 
Q 3072 2584 2669 2484 
Q 3125 2378 3379 2068 
Q 3634 1759 3634 1313 
Q 3634 634 3220 271 
Q 2806 -91 2034 -91 
Q 1263 -91 848 271 
Q 434 634 434 1313 
Q 434 1759 690 2068 
Q 947 2378 1403 2484 
z
M 1172 3481 
Q 1172 3119 1398 2916 
Q 1625 2713 2034 2713 
Q 2441 2713 2670 2916 
Q 2900 3119 2900 3481 
Q 2900 3844 2670 4047 
Q 2441 4250 2034 4250 
Q 1625 4250 1398 4047 
Q 1172 3844 1172 3481 
z
" transform="scale(0.015625)"/>
       </defs>
       <use xlink:href="#DejaVuSans-32"/>
       <use xlink:href="#DejaVuSans-30" transform="translate(63.623047 0)"/>
       <use xlink:href="#DejaVuSans-30" transform="translate(127.246094 0)"/>
       <use xlink:href="#DejaVuSans-38" transform="translate(190.869141 0)"/>
      </g>
     </g>
    </g>
    <g id="xtick_5">
     <g id="line2d_9">
      <path d="M 227.12382 368.45 
L 227.12382 10.8 
" clip-path="url(#p9044cc13f7)" style="fill: none; stroke: #b0b0b0; stroke-opacity: 0.4; stroke-width: 0.8; stroke-linecap: square"/>
     </g>
     <g id="line2d_10">
      <g>
       <use xlink:href="#mc2563ebd8e" x="227.12382" y="368.45" style="stroke: #000000; stroke-width: 0.8"/>
      </g>
     </g>
     <g id="text_5">
      <!-- 2009 -->
      <g transform="translate(232.090695 421.26) rotate(-90) scale(0.18 -0.18)">
       <defs>
        <path id="DejaVuSans-39" d="M 703 97 
L 703 672 
Q 941 559 1184 500 
Q 1428 441 1663 441 
Q 2288 441 2617 861 
Q 2947 1281 2994 2138 
Q 2813 1869 2534 1725 
Q 2256 1581 1919 1581 
Q 1219 1581 811 2004 
Q 403 2428 403 3163 
Q 403 3881 828 4315 
Q 1253 4750 1959 4750 
Q 2769 4750 3195 4129 
Q 3622 3509 3622 2328 
Q 3622 1225 3098 567 
Q 2575 -91 1691 -91 
Q 1453 -91 1209 -44 
Q 966 3 703 97 
z
M 1959 2075 
Q 2384 2075 2632 2365 
Q 2881 2656 2881 3163 
Q 2881 3666 2632 3958 
Q 2384 4250 1959 4250 
Q 1534 4250 1286 3958 
Q 1038 3666 1038 3163 
Q 1038 2656 1286 2365 
Q 1534 2075 1959 2075 
z
" transform="scale(0.015625)"/>
       </defs>
       <use xlink:href="#DejaVuSans-32"/>
       <use xlink:href="#DejaVuSans-30" transform="translate(63.623047 0)"/>
       <use xlink:href="#DejaVuSans-30" transform="translate(127.246094 0)"/>
       <use xlink:href="#DejaVuSans-39" transform="translate(190.869141 0)"/>
      </g>
     </g>
    </g>
    <g id="xtick_6">
     <g id="line2d_11">
      <path d="M 257.238112 368.45 
L 257.238112 10.8 
" clip-path="url(#p9044cc13f7)" style="fill: none; stroke: #b0b0b0; stroke-opacity: 0.4; stroke-width: 0.8; stroke-linecap: square"/>
     </g>
     <g id="line2d_12">
      <g>
       <use xlink:href="#mc2563ebd8e" x="257.238112" y="368.45" style="stroke: #000000; stroke-width: 0.8"/>
      </g>
     </g>
     <g id="text_6">
      <!-- 2010 -->
      <g transform="translate(262.204987 421.26) rotate(-90) scale(0.18 -0.18)">
       <defs>
        <path id="DejaVuSans-31" d="M 794 531 
L 1825 531 
L 1825 4091 
L 703 3866 
L 703 4441 
L 1819 4666 
L 2450 4666 
L 2450 531 
L 3481 531 
L 3481 0 
L 794 0 
L 794 531 
z
" transform="scale(0.015625)"/>
       </defs>
       <use xlink:href="#DejaVuSans-32"/>
       <use xlink:href="#DejaVuSans-30" transform="translate(63.623047 0)"/>
       <use xlink:href="#DejaVuSans-31" transform="translate(127.246094 0)"/>
       <use xlink:href="#DejaVuSans-30" transform="translate(190.869141 0)"/>
      </g>
     </g>
    </g>
    <g id="xtick_7">
     <g id="line2d_13">
      <path d="M 287.352403 368.45 
L 287.352403 10.8 
" clip-path="url(#p9044cc13f7)" style="fill: none; stroke: #b0b0b0; stroke-opacity: 0.4; stroke-width: 0.8; stroke-linecap: square"/>
     </g>
     <g id="line2d_14">
      <g>
       <use xlink:href="#mc2563ebd8e" x="287.352403" y="368.45" style="stroke: #000000; stroke-width: 0.8"/>
      </g>
     </g>
     <g id="text_7">
      <!-- 2011 -->
      <g transform="translate(292.319278 421.26) rotate(-90) scale(0.18 -0.18)">
       <use xlink:href="#DejaVuSans-32"/>
       <use xlink:href="#DejaVuSans-30" transform="translate(63.623047 0)"/>
       <use xlink:href="#DejaVuSans-31" transform="translate(127.246094 0)"/>
       <use xlink:href="#DejaVuSans-31" transform="translate(190.869141 0)"/>
      </g>
     </g>
    </g>
    <g id="xtick_8">
     <g id="line2d_15">
      <path d="M 317.466695 368.45 
L 317.466695 10.8 
" clip-path="url(#p9044cc13f7)" style="fill: none; stroke: #b0b0b0; stroke-opacity: 0.4; stroke-width: 0.8; stroke-linecap: square"/>
     </g>
     <g id="line2d_16">
      <g>
       <use xlink:href="#mc2563ebd8e" x="317.466695" y="368.45" style="stroke: #000000; stroke-width: 0.8"/>
      </g>
     </g>
     <g id="text_8">
      <!-- 2012 -->
      <g transform="translate(322.43357 421.26) rotate(-90) scale(0.18 -0.18)">
       <use xlink:href="#DejaVuSans-32"/>
       <use xlink:href="#DejaVuSans-30" transform="translate(63.623047 0)"/>
       <use xlink:href="#DejaVuSans-31" transform="translate(127.246094 0)"/>
       <use xlink:href="#DejaVuSans-32" transform="translate(190.869141 0)"/>
      </g>
     </g>
    </g>
    <g id="xtick_9">
     <g id="line2d_17">
      <path d="M 347.663491 368.45 
L 347.663491 10.8 
" clip-path="url(#p9044cc13f7)" style="fill: none; stroke: #b0b0b0; stroke-opacity: 0.4; stroke-width: 0.8; stroke-linecap: square"/>
     </g>
     <g id="line2d_18">
      <g>
       <use xlink:href="#mc2563ebd8e" x="347.663491" y="368.45" style="stroke: #000000; stroke-width: 0.8"/>
      </g>
     </g>
     <g id="text_9">
      <!-- 2013 -->
      <g transform="translate(352.630366 421.26) rotate(-90) scale(0.18 -0.18)">
       <defs>
        <path id="DejaVuSans-33" d="M 2597 2516 
Q 3050 2419 3304 2112 
Q 3559 1806 3559 1356 
Q 3559 666 3084 287 
Q 2609 -91 1734 -91 
Q 1441 -91 1130 -33 
Q 819 25 488 141 
L 488 750 
Q 750 597 1062 519 
Q 1375 441 1716 441 
Q 2309 441 2620 675 
Q 2931 909 2931 1356 
Q 2931 1769 2642 2001 
Q 2353 2234 1838 2234 
L 1294 2234 
L 1294 2753 
L 1863 2753 
Q 2328 2753 2575 2939 
Q 2822 3125 2822 3475 
Q 2822 3834 2567 4026 
Q 2313 4219 1838 4219 
Q 1578 4219 1281 4162 
Q 984 4106 628 3988 
L 628 4550 
Q 988 4650 1302 4700 
Q 1616 4750 1894 4750 
Q 2613 4750 3031 4423 
Q 3450 4097 3450 3541 
Q 3450 3153 3228 2886 
Q 3006 2619 2597 2516 
z
" transform="scale(0.015625)"/>
       </defs>
       <use xlink:href="#DejaVuSans-32"/>
       <use xlink:href="#DejaVuSans-30" transform="translate(63.623047 0)"/>
       <use xlink:href="#DejaVuSans-31" transform="translate(127.246094 0)"/>
       <use xlink:href="#DejaVuSans-33" transform="translate(190.869141 0)"/>
      </g>
     </g>
    </g>
    <g id="xtick_10">
     <g id="line2d_19">
      <path d="M 377.777783 368.45 
L 377.777783 10.8 
" clip-path="url(#p9044cc13f7)" style="fill: none; stroke: #b0b0b0; stroke-opacity: 0.4; stroke-width: 0.8; stroke-linecap: square"/>
     </g>
     <g id="line2d_20">
      <g>
       <use xlink:href="#mc2563ebd8e" x="377.777783" y="368.45" style="stroke: #000000; stroke-width: 0.8"/>
      </g>
     </g>
     <g id="text_10">
      <!-- 2014 -->
      <g transform="translate(382.744658 421.26) rotate(-90) scale(0.18 -0.18)">
       <defs>
        <path id="DejaVuSans-34" d="M 2419 4116 
L 825 1625 
L 2419 1625 
L 2419 4116 
z
M 2253 4666 
L 3047 4666 
L 3047 1625 
L 3713 1625 
L 3713 1100 
L 3047 1100 
L 3047 0 
L 2419 0 
L 2419 1100 
L 313 1100 
L 313 1709 
L 2253 4666 
z
" transform="scale(0.015625)"/>
       </defs>
       <use xlink:href="#DejaVuSans-32"/>
       <use xlink:href="#DejaVuSans-30" transform="translate(63.623047 0)"/>
       <use xlink:href="#DejaVuSans-31" transform="translate(127.246094 0)"/>
       <use xlink:href="#DejaVuSans-34" transform="translate(190.869141 0)"/>
      </g>
     </g>
    </g>
    <g id="xtick_11">
     <g id="line2d_21">
      <path d="M 407.892075 368.45 
L 407.892075 10.8 
" clip-path="url(#p9044cc13f7)" style="fill: none; stroke: #b0b0b0; stroke-opacity: 0.4; stroke-width: 0.8; stroke-linecap: square"/>
     </g>
     <g id="line2d_22">
      <g>
       <use xlink:href="#mc2563ebd8e" x="407.892075" y="368.45" style="stroke: #000000; stroke-width: 0.8"/>
      </g>
     </g>
     <g id="text_11">
      <!-- 2015 -->
      <g transform="translate(412.85895 421.26) rotate(-90) scale(0.18 -0.18)">
       <use xlink:href="#DejaVuSans-32"/>
       <use xlink:href="#DejaVuSans-30" transform="translate(63.623047 0)"/>
       <use xlink:href="#DejaVuSans-31" transform="translate(127.246094 0)"/>
       <use xlink:href="#DejaVuSans-35" transform="translate(190.869141 0)"/>
      </g>
     </g>
    </g>
    <g id="xtick_12">
     <g id="line2d_23">
      <path d="M 438.006366 368.45 
L 438.006366 10.8 
" clip-path="url(#p9044cc13f7)" style="fill: none; stroke: #b0b0b0; stroke-opacity: 0.4; stroke-width: 0.8; stroke-linecap: square"/>
     </g>
     <g id="line2d_24">
      <g>
       <use xlink:href="#mc2563ebd8e" x="438.006366" y="368.45" style="stroke: #000000; stroke-width: 0.8"/>
      </g>
     </g>
     <g id="text_12">
      <!-- 2016 -->
      <g transform="translate(442.973241 421.26) rotate(-90) scale(0.18 -0.18)">
       <use xlink:href="#DejaVuSans-32"/>
       <use xlink:href="#DejaVuSans-30" transform="translate(63.623047 0)"/>
       <use xlink:href="#DejaVuSans-31" transform="translate(127.246094 0)"/>
       <use xlink:href="#DejaVuSans-36" transform="translate(190.869141 0)"/>
      </g>
     </g>
    </g>
    <g id="xtick_13">
     <g id="line2d_25">
      <path d="M 468.203163 368.45 
L 468.203163 10.8 
" clip-path="url(#p9044cc13f7)" style="fill: none; stroke: #b0b0b0; stroke-opacity: 0.4; stroke-width: 0.8; stroke-linecap: square"/>
     </g>
     <g id="line2d_26">
      <g>
       <use xlink:href="#mc2563ebd8e" x="468.203163" y="368.45" style="stroke: #000000; stroke-width: 0.8"/>
      </g>
     </g>
     <g id="text_13">
      <!-- 2017 -->
      <g transform="translate(473.170038 421.26) rotate(-90) scale(0.18 -0.18)">
       <use xlink:href="#DejaVuSans-32"/>
       <use xlink:href="#DejaVuSans-30" transform="translate(63.623047 0)"/>
       <use xlink:href="#DejaVuSans-31" transform="translate(127.246094 0)"/>
       <use xlink:href="#DejaVuSans-37" transform="translate(190.869141 0)"/>
      </g>
     </g>
    </g>
    <g id="xtick_14">
     <g id="line2d_27">
      <path d="M 498.317454 368.45 
L 498.317454 10.8 
" clip-path="url(#p9044cc13f7)" style="fill: none; stroke: #b0b0b0; stroke-opacity: 0.4; stroke-width: 0.8; stroke-linecap: square"/>
     </g>
     <g id="line2d_28">
      <g>
       <use xlink:href="#mc2563ebd8e" x="498.317454" y="368.45" style="stroke: #000000; stroke-width: 0.8"/>
      </g>
     </g>
     <g id="text_14">
      <!-- 2018 -->
      <g transform="translate(503.284329 421.26) rotate(-90) scale(0.18 -0.18)">
       <use xlink:href="#DejaVuSans-32"/>
       <use xlink:href="#DejaVuSans-30" transform="translate(63.623047 0)"/>
       <use xlink:href="#DejaVuSans-31" transform="translate(127.246094 0)"/>
       <use xlink:href="#DejaVuSans-38" transform="translate(190.869141 0)"/>
      </g>
     </g>
    </g>
    <g id="xtick_15">
     <g id="line2d_29">
      <path d="M 528.431746 368.45 
L 528.431746 10.8 
" clip-path="url(#p9044cc13f7)" style="fill: none; stroke: #b0b0b0; stroke-opacity: 0.4; stroke-width: 0.8; stroke-linecap: square"/>
     </g>
     <g id="line2d_30">
      <g>
       <use xlink:href="#mc2563ebd8e" x="528.431746" y="368.45" style="stroke: #000000; stroke-width: 0.8"/>
      </g>
     </g>
     <g id="text_15">
      <!-- 2019 -->
      <g transform="translate(533.398621 421.26) rotate(-90) scale(0.18 -0.18)">
       <use xlink:href="#DejaVuSans-32"/>
       <use xlink:href="#DejaVuSans-30" transform="translate(63.623047 0)"/>
       <use xlink:href="#DejaVuSans-31" transform="translate(127.246094 0)"/>
       <use xlink:href="#DejaVuSans-39" transform="translate(190.869141 0)"/>
      </g>
     </g>
    </g>
    <g id="xtick_16">
     <g id="line2d_31">
      <path d="M 558.546037 368.45 
L 558.546037 10.8 
" clip-path="url(#p9044cc13f7)" style="fill: none; stroke: #b0b0b0; stroke-opacity: 0.4; stroke-width: 0.8; stroke-linecap: square"/>
     </g>
     <g id="line2d_32">
      <g>
       <use xlink:href="#mc2563ebd8e" x="558.546037" y="368.45" style="stroke: #000000; stroke-width: 0.8"/>
      </g>
     </g>
     <g id="text_16">
      <!-- 2020 -->
      <g transform="translate(563.512912 421.26) rotate(-90) scale(0.18 -0.18)">
       <use xlink:href="#DejaVuSans-32"/>
       <use xlink:href="#DejaVuSans-30" transform="translate(63.623047 0)"/>
       <use xlink:href="#DejaVuSans-32" transform="translate(127.246094 0)"/>
       <use xlink:href="#DejaVuSans-30" transform="translate(190.869141 0)"/>
      </g>
     </g>
    </g>
    <g id="xtick_17">
     <g id="line2d_33">
      <path d="M 588.742834 368.45 
L 588.742834 10.8 
" clip-path="url(#p9044cc13f7)" style="fill: none; stroke: #b0b0b0; stroke-opacity: 0.4; stroke-width: 0.8; stroke-linecap: square"/>
     </g>
     <g id="line2d_34">
      <g>
       <use xlink:href="#mc2563ebd8e" x="588.742834" y="368.45" style="stroke: #000000; stroke-width: 0.8"/>
      </g>
     </g>
     <g id="text_17">
      <!-- 2021 -->
      <g transform="translate(593.709709 421.26) rotate(-90) scale(0.18 -0.18)">
       <use xlink:href="#DejaVuSans-32"/>
       <use xlink:href="#DejaVuSans-30" transform="translate(63.623047 0)"/>
       <use xlink:href="#DejaVuSans-32" transform="translate(127.246094 0)"/>
       <use xlink:href="#DejaVuSans-31" transform="translate(190.869141 0)"/>
      </g>
     </g>
    </g>
    <g id="xtick_18">
     <g id="line2d_35">
      <path d="M 618.857125 368.45 
L 618.857125 10.8 
" clip-path="url(#p9044cc13f7)" style="fill: none; stroke: #b0b0b0; stroke-opacity: 0.4; stroke-width: 0.8; stroke-linecap: square"/>
     </g>
     <g id="line2d_36">
      <g>
       <use xlink:href="#mc2563ebd8e" x="618.857125" y="368.45" style="stroke: #000000; stroke-width: 0.8"/>
      </g>
     </g>
     <g id="text_18">
      <!-- 2022 -->
      <g transform="translate(623.824 421.26) rotate(-90) scale(0.18 -0.18)">
       <use xlink:href="#DejaVuSans-32"/>
       <use xlink:href="#DejaVuSans-30" transform="translate(63.623047 0)"/>
       <use xlink:href="#DejaVuSans-32" transform="translate(127.246094 0)"/>
       <use xlink:href="#DejaVuSans-32" transform="translate(190.869141 0)"/>
      </g>
     </g>
    </g>
    <g id="xtick_19">
     <g id="line2d_37">
      <path d="M 648.971417 368.45 
L 648.971417 10.8 
" clip-path="url(#p9044cc13f7)" style="fill: none; stroke: #b0b0b0; stroke-opacity: 0.4; stroke-width: 0.8; stroke-linecap: square"/>
     </g>
     <g id="line2d_38">
      <g>
       <use xlink:href="#mc2563ebd8e" x="648.971417" y="368.45" style="stroke: #000000; stroke-width: 0.8"/>
      </g>
     </g>
     <g id="text_19">
      <!-- 2023 -->
      <g transform="translate(653.938292 421.26) rotate(-90) scale(0.18 -0.18)">
       <use xlink:href="#DejaVuSans-32"/>
       <use xlink:href="#DejaVuSans-30" transform="translate(63.623047 0)"/>
       <use xlink:href="#DejaVuSans-32" transform="translate(127.246094 0)"/>
       <use xlink:href="#DejaVuSans-33" transform="translate(190.869141 0)"/>
      </g>
     </g>
    </g>
    <g id="xtick_20">
     <g id="line2d_39">
      <path d="M 679.085708 368.45 
L 679.085708 10.8 
" clip-path="url(#p9044cc13f7)" style="fill: none; stroke: #b0b0b0; stroke-opacity: 0.4; stroke-width: 0.8; stroke-linecap: square"/>
     </g>
     <g id="line2d_40">
      <g>
       <use xlink:href="#mc2563ebd8e" x="679.085708" y="368.45" style="stroke: #000000; stroke-width: 0.8"/>
      </g>
     </g>
     <g id="text_20">
      <!-- 2024 -->
      <g transform="translate(684.052583 421.26) rotate(-90) scale(0.18 -0.18)">
       <use xlink:href="#DejaVuSans-32"/>
       <use xlink:href="#DejaVuSans-30" transform="translate(63.623047 0)"/>
       <use xlink:href="#DejaVuSans-32" transform="translate(127.246094 0)"/>
       <use xlink:href="#DejaVuSans-34" transform="translate(190.869141 0)"/>
      </g>
     </g>
    </g>
   </g>
   <g id="matplotlib.axis_2">
    <g id="ytick_1">
     <g id="line2d_41">
      <path d="M 78.8625 342.64743 
L 709.2 342.64743 
" clip-path="url(#p9044cc13f7)" style="fill: none; stroke: #b0b0b0; stroke-opacity: 0.4; stroke-width: 0.8; stroke-linecap: square"/>
     </g>
     <g id="line2d_42">
      <defs>
       <path id="m2afee414f7" d="M 0 0 
L -3.5 0 
" style="stroke: #000000; stroke-width: 0.8"/>
      </defs>
      <g>
       <use xlink:href="#m2afee414f7" x="78.8625" y="342.64743" style="stroke: #000000; stroke-width: 0.8"/>
      </g>
     </g>
     <g id="text_21">
      <!-- 0.8 -->
      <g transform="translate(43.236875 349.486024) scale(0.18 -0.18)">
       <defs>
        <path id="DejaVuSans-2e" d="M 684 794 
L 1344 794 
L 1344 0 
L 684 0 
L 684 794 
z
" transform="scale(0.015625)"/>
       </defs>
       <use xlink:href="#DejaVuSans-30"/>
       <use xlink:href="#DejaVuSans-2e" transform="translate(63.623047 0)"/>
       <use xlink:href="#DejaVuSans-38" transform="translate(95.410156 0)"/>
      </g>
     </g>
    </g>
    <g id="ytick_2">
     <g id="line2d_43">
      <path d="M 78.8625 318.474393 
L 709.2 318.474393 
" clip-path="url(#p9044cc13f7)" style="fill: none; stroke: #b0b0b0; stroke-opacity: 0.4; stroke-width: 0.8; stroke-linecap: square"/>
     </g>
     <g id="line2d_44">
      <g>
       <use xlink:href="#m2afee414f7" x="78.8625" y="318.474393" style="stroke: #000000; stroke-width: 0.8"/>
      </g>
     </g>
     <g id="text_22">
      <!-- 1.0 -->
      <g transform="translate(43.236875 325.312987) scale(0.18 -0.18)">
       <use xlink:href="#DejaVuSans-31"/>
       <use xlink:href="#DejaVuSans-2e" transform="translate(63.623047 0)"/>
       <use xlink:href="#DejaVuSans-30" transform="translate(95.410156 0)"/>
      </g>
     </g>
    </g>
    <g id="ytick_3">
     <g id="line2d_45">
      <path d="M 78.8625 243.386084 
L 709.2 243.386084 
" clip-path="url(#p9044cc13f7)" style="fill: none; stroke: #b0b0b0; stroke-opacity: 0.4; stroke-width: 0.8; stroke-linecap: square"/>
     </g>
     <g id="line2d_46">
      <g>
       <use xlink:href="#m2afee414f7" x="78.8625" y="243.386084" style="stroke: #000000; stroke-width: 0.8"/>
      </g>
     </g>
     <g id="text_23">
      <!-- 2.0 -->
      <g transform="translate(43.236875 250.224678) scale(0.18 -0.18)">
       <use xlink:href="#DejaVuSans-32"/>
       <use xlink:href="#DejaVuSans-2e" transform="translate(63.623047 0)"/>
       <use xlink:href="#DejaVuSans-30" transform="translate(95.410156 0)"/>
      </g>
     </g>
    </g>
    <g id="ytick_4">
     <g id="line2d_47">
      <path d="M 78.8625 199.462239 
L 709.2 199.462239 
" clip-path="url(#p9044cc13f7)" style="fill: none; stroke: #b0b0b0; stroke-opacity: 0.4; stroke-width: 0.8; stroke-linecap: square"/>
     </g>
     <g id="line2d_48">
      <g>
       <use xlink:href="#m2afee414f7" x="78.8625" y="199.462239" style="stroke: #000000; stroke-width: 0.8"/>
      </g>
     </g>
     <g id="text_24">
      <!-- 3.0 -->
      <g transform="translate(43.236875 206.300832) scale(0.18 -0.18)">
       <use xlink:href="#DejaVuSans-33"/>
       <use xlink:href="#DejaVuSans-2e" transform="translate(63.623047 0)"/>
       <use xlink:href="#DejaVuSans-30" transform="translate(95.410156 0)"/>
      </g>
     </g>
    </g>
    <g id="ytick_5">
     <g id="line2d_49">
      <path d="M 78.8625 144.124738 
L 709.2 144.124738 
" clip-path="url(#p9044cc13f7)" style="fill: none; stroke: #b0b0b0; stroke-opacity: 0.4; stroke-width: 0.8; stroke-linecap: square"/>
     </g>
     <g id="line2d_50">
      <g>
       <use xlink:href="#m2afee414f7" x="78.8625" y="144.124738" style="stroke: #000000; stroke-width: 0.8"/>
      </g>
     </g>
     <g id="text_25">
      <!-- 5.0 -->
      <g transform="translate(43.236875 150.963332) scale(0.18 -0.18)">
       <use xlink:href="#DejaVuSans-35"/>
       <use xlink:href="#DejaVuSans-2e" transform="translate(63.623047 0)"/>
       <use xlink:href="#DejaVuSans-30" transform="translate(95.410156 0)"/>
      </g>
     </g>
    </g>
    <g id="ytick_6">
     <g id="line2d_51">
      <path d="M 78.8625 107.674858 
L 709.2 107.674858 
" clip-path="url(#p9044cc13f7)" style="fill: none; stroke: #b0b0b0; stroke-opacity: 0.4; stroke-width: 0.8; stroke-linecap: square"/>
     </g>
     <g id="line2d_52">
      <g>
       <use xlink:href="#m2afee414f7" x="78.8625" y="107.674858" style="stroke: #000000; stroke-width: 0.8"/>
      </g>
     </g>
     <g id="text_26">
      <!-- 7.0 -->
      <g transform="translate(43.236875 114.513452) scale(0.18 -0.18)">
       <use xlink:href="#DejaVuSans-37"/>
       <use xlink:href="#DejaVuSans-2e" transform="translate(63.623047 0)"/>
       <use xlink:href="#DejaVuSans-30" transform="translate(95.410156 0)"/>
      </g>
     </g>
    </g>
    <g id="ytick_7">
     <g id="line2d_53">
      <path d="M 78.8625 69.036429 
L 709.2 69.036429 
" clip-path="url(#p9044cc13f7)" style="fill: none; stroke: #b0b0b0; stroke-opacity: 0.4; stroke-width: 0.8; stroke-linecap: square"/>
     </g>
     <g id="line2d_54">
      <g>
       <use xlink:href="#m2afee414f7" x="78.8625" y="69.036429" style="stroke: #000000; stroke-width: 0.8"/>
      </g>
     </g>
     <g id="text_27">
      <!-- 10.0 -->
      <g transform="translate(31.784375 75.875022) scale(0.18 -0.18)">
       <use xlink:href="#DejaVuSans-31"/>
       <use xlink:href="#DejaVuSans-30" transform="translate(63.623047 0)"/>
       <use xlink:href="#DejaVuSans-2e" transform="translate(127.246094 0)"/>
       <use xlink:href="#DejaVuSans-30" transform="translate(159.033203 0)"/>
      </g>
     </g>
    </g>
    <g id="ytick_8">
     <g id="line2d_55">
      <path d="M 78.8625 32.586549 
L 709.2 32.586549 
" clip-path="url(#p9044cc13f7)" style="fill: none; stroke: #b0b0b0; stroke-opacity: 0.4; stroke-width: 0.8; stroke-linecap: square"/>
     </g>
     <g id="line2d_56">
      <g>
       <use xlink:href="#m2afee414f7" x="78.8625" y="32.586549" style="stroke: #000000; stroke-width: 0.8"/>
      </g>
     </g>
     <g id="text_28">
      <!-- 14.0 -->
      <g transform="translate(31.784375 39.425142) scale(0.18 -0.18)">
       <use xlink:href="#DejaVuSans-31"/>
       <use xlink:href="#DejaVuSans-34" transform="translate(63.623047 0)"/>
       <use xlink:href="#DejaVuSans-2e" transform="translate(127.246094 0)"/>
       <use xlink:href="#DejaVuSans-30" transform="translate(159.033203 0)"/>
      </g>
     </g>
    </g>
    <g id="ytick_9">
     <g id="line2d_57">
      <path d="M 78.8625 357.112823 
L 709.2 357.112823 
" clip-path="url(#p9044cc13f7)" style="fill: none; stroke-dasharray: 0.8,1.32; stroke-dashoffset: 0; stroke: #b0b0b0; stroke-opacity: 0.2; stroke-width: 0.8"/>
     </g>
     <g id="line2d_58">
      <defs>
       <path id="m40e1709fc2" d="M 0 0 
L -2 0 
" style="stroke: #000000; stroke-width: 0.6"/>
      </defs>
      <g>
       <use xlink:href="#m40e1709fc2" x="78.8625" y="357.112823" style="stroke: #000000; stroke-width: 0.6"/>
      </g>
     </g>
    </g>
    <g id="ytick_10">
     <g id="line2d_59">
      <path d="M 78.8625 329.888049 
L 709.2 329.888049 
" clip-path="url(#p9044cc13f7)" style="fill: none; stroke-dasharray: 0.8,1.32; stroke-dashoffset: 0; stroke: #b0b0b0; stroke-opacity: 0.2; stroke-width: 0.8"/>
     </g>
     <g id="line2d_60">
      <g>
       <use xlink:href="#m40e1709fc2" x="78.8625" y="329.888049" style="stroke: #000000; stroke-width: 0.6"/>
      </g>
     </g>
    </g>
    <g id="ytick_11">
     <g id="line2d_61">
      <path d="M 78.8625 168.297774 
L 709.2 168.297774 
" clip-path="url(#p9044cc13f7)" style="fill: none; stroke-dasharray: 0.8,1.32; stroke-dashoffset: 0; stroke: #b0b0b0; stroke-opacity: 0.2; stroke-width: 0.8"/>
     </g>
     <g id="line2d_62">
      <g>
       <use xlink:href="#m40e1709fc2" x="78.8625" y="168.297774" style="stroke: #000000; stroke-width: 0.6"/>
      </g>
     </g>
    </g>
    <g id="ytick_12">
     <g id="line2d_63">
      <path d="M 78.8625 124.373929 
L 709.2 124.373929 
" clip-path="url(#p9044cc13f7)" style="fill: none; stroke-dasharray: 0.8,1.32; stroke-dashoffset: 0; stroke: #b0b0b0; stroke-opacity: 0.2; stroke-width: 0.8"/>
     </g>
     <g id="line2d_64">
      <g>
       <use xlink:href="#m40e1709fc2" x="78.8625" y="124.373929" style="stroke: #000000; stroke-width: 0.6"/>
      </g>
     </g>
    </g>
    <g id="ytick_13">
     <g id="line2d_65">
      <path d="M 78.8625 93.209465 
L 709.2 93.209465 
" clip-path="url(#p9044cc13f7)" style="fill: none; stroke-dasharray: 0.8,1.32; stroke-dashoffset: 0; stroke: #b0b0b0; stroke-opacity: 0.2; stroke-width: 0.8"/>
     </g>
     <g id="line2d_66">
      <g>
       <use xlink:href="#m40e1709fc2" x="78.8625" y="93.209465" style="stroke: #000000; stroke-width: 0.6"/>
      </g>
     </g>
    </g>
    <g id="ytick_14">
     <g id="line2d_67">
      <path d="M 78.8625 80.450084 
L 709.2 80.450084 
" clip-path="url(#p9044cc13f7)" style="fill: none; stroke-dasharray: 0.8,1.32; stroke-dashoffset: 0; stroke: #b0b0b0; stroke-opacity: 0.2; stroke-width: 0.8"/>
     </g>
     <g id="line2d_68">
      <g>
       <use xlink:href="#m40e1709fc2" x="78.8625" y="80.450084" style="stroke: #000000; stroke-width: 0.6"/>
      </g>
     </g>
    </g>
    <g id="text_29">
     <!-- Cumulative Returns (Log Scale) -->
     <g transform="translate(24.040938 331.4425) rotate(-90) scale(0.18 -0.18)">
      <defs>
       <path id="DejaVuSans-43" d="M 4122 4306 
L 4122 3641 
Q 3803 3938 3442 4084 
Q 3081 4231 2675 4231 
Q 1875 4231 1450 3742 
Q 1025 3253 1025 2328 
Q 1025 1406 1450 917 
Q 1875 428 2675 428 
Q 3081 428 3442 575 
Q 3803 722 4122 1019 
L 4122 359 
Q 3791 134 3420 21 
Q 3050 -91 2638 -91 
Q 1578 -91 968 557 
Q 359 1206 359 2328 
Q 359 3453 968 4101 
Q 1578 4750 2638 4750 
Q 3056 4750 3426 4639 
Q 3797 4528 4122 4306 
z
" transform="scale(0.015625)"/>
       <path id="DejaVuSans-75" d="M 544 1381 
L 544 3500 
L 1119 3500 
L 1119 1403 
Q 1119 906 1312 657 
Q 1506 409 1894 409 
Q 2359 409 2629 706 
Q 2900 1003 2900 1516 
L 2900 3500 
L 3475 3500 
L 3475 0 
L 2900 0 
L 2900 538 
Q 2691 219 2414 64 
Q 2138 -91 1772 -91 
Q 1169 -91 856 284 
Q 544 659 544 1381 
z
M 1991 3584 
L 1991 3584 
z
" transform="scale(0.015625)"/>
       <path id="DejaVuSans-6d" d="M 3328 2828 
Q 3544 3216 3844 3400 
Q 4144 3584 4550 3584 
Q 5097 3584 5394 3201 
Q 5691 2819 5691 2113 
L 5691 0 
L 5113 0 
L 5113 2094 
Q 5113 2597 4934 2840 
Q 4756 3084 4391 3084 
Q 3944 3084 3684 2787 
Q 3425 2491 3425 1978 
L 3425 0 
L 2847 0 
L 2847 2094 
Q 2847 2600 2669 2842 
Q 2491 3084 2119 3084 
Q 1678 3084 1418 2786 
Q 1159 2488 1159 1978 
L 1159 0 
L 581 0 
L 581 3500 
L 1159 3500 
L 1159 2956 
Q 1356 3278 1631 3431 
Q 1906 3584 2284 3584 
Q 2666 3584 2933 3390 
Q 3200 3197 3328 2828 
z
" transform="scale(0.015625)"/>
       <path id="DejaVuSans-6c" d="M 603 4863 
L 1178 4863 
L 1178 0 
L 603 0 
L 603 4863 
z
" transform="scale(0.015625)"/>
       <path id="DejaVuSans-61" d="M 2194 1759 
Q 1497 1759 1228 1600 
Q 959 1441 959 1056 
Q 959 750 1161 570 
Q 1363 391 1709 391 
Q 2188 391 2477 730 
Q 2766 1069 2766 1631 
L 2766 1759 
L 2194 1759 
z
M 3341 1997 
L 3341 0 
L 2766 0 
L 2766 531 
Q 2569 213 2275 61 
Q 1981 -91 1556 -91 
Q 1019 -91 701 211 
Q 384 513 384 1019 
Q 384 1609 779 1909 
Q 1175 2209 1959 2209 
L 2766 2209 
L 2766 2266 
Q 2766 2663 2505 2880 
Q 2244 3097 1772 3097 
Q 1472 3097 1187 3025 
Q 903 2953 641 2809 
L 641 3341 
Q 956 3463 1253 3523 
Q 1550 3584 1831 3584 
Q 2591 3584 2966 3190 
Q 3341 2797 3341 1997 
z
" transform="scale(0.015625)"/>
       <path id="DejaVuSans-74" d="M 1172 4494 
L 1172 3500 
L 2356 3500 
L 2356 3053 
L 1172 3053 
L 1172 1153 
Q 1172 725 1289 603 
Q 1406 481 1766 481 
L 2356 481 
L 2356 0 
L 1766 0 
Q 1100 0 847 248 
Q 594 497 594 1153 
L 594 3053 
L 172 3053 
L 172 3500 
L 594 3500 
L 594 4494 
L 1172 4494 
z
" transform="scale(0.015625)"/>
       <path id="DejaVuSans-69" d="M 603 3500 
L 1178 3500 
L 1178 0 
L 603 0 
L 603 3500 
z
M 603 4863 
L 1178 4863 
L 1178 4134 
L 603 4134 
L 603 4863 
z
" transform="scale(0.015625)"/>
       <path id="DejaVuSans-76" d="M 191 3500 
L 800 3500 
L 1894 563 
L 2988 3500 
L 3597 3500 
L 2284 0 
L 1503 0 
L 191 3500 
z
" transform="scale(0.015625)"/>
       <path id="DejaVuSans-65" d="M 3597 1894 
L 3597 1613 
L 953 1613 
Q 991 1019 1311 708 
Q 1631 397 2203 397 
Q 2534 397 2845 478 
Q 3156 559 3463 722 
L 3463 178 
Q 3153 47 2828 -22 
Q 2503 -91 2169 -91 
Q 1331 -91 842 396 
Q 353 884 353 1716 
Q 353 2575 817 3079 
Q 1281 3584 2069 3584 
Q 2775 3584 3186 3129 
Q 3597 2675 3597 1894 
z
M 3022 2063 
Q 3016 2534 2758 2815 
Q 2500 3097 2075 3097 
Q 1594 3097 1305 2825 
Q 1016 2553 972 2059 
L 3022 2063 
z
" transform="scale(0.015625)"/>
       <path id="DejaVuSans-20" transform="scale(0.015625)"/>
       <path id="DejaVuSans-52" d="M 2841 2188 
Q 3044 2119 3236 1894 
Q 3428 1669 3622 1275 
L 4263 0 
L 3584 0 
L 2988 1197 
Q 2756 1666 2539 1819 
Q 2322 1972 1947 1972 
L 1259 1972 
L 1259 0 
L 628 0 
L 628 4666 
L 2053 4666 
Q 2853 4666 3247 4331 
Q 3641 3997 3641 3322 
Q 3641 2881 3436 2590 
Q 3231 2300 2841 2188 
z
M 1259 4147 
L 1259 2491 
L 2053 2491 
Q 2509 2491 2742 2702 
Q 2975 2913 2975 3322 
Q 2975 3731 2742 3939 
Q 2509 4147 2053 4147 
L 1259 4147 
z
" transform="scale(0.015625)"/>
       <path id="DejaVuSans-72" d="M 2631 2963 
Q 2534 3019 2420 3045 
Q 2306 3072 2169 3072 
Q 1681 3072 1420 2755 
Q 1159 2438 1159 1844 
L 1159 0 
L 581 0 
L 581 3500 
L 1159 3500 
L 1159 2956 
Q 1341 3275 1631 3429 
Q 1922 3584 2338 3584 
Q 2397 3584 2469 3576 
Q 2541 3569 2628 3553 
L 2631 2963 
z
" transform="scale(0.015625)"/>
       <path id="DejaVuSans-6e" d="M 3513 2113 
L 3513 0 
L 2938 0 
L 2938 2094 
Q 2938 2591 2744 2837 
Q 2550 3084 2163 3084 
Q 1697 3084 1428 2787 
Q 1159 2491 1159 1978 
L 1159 0 
L 581 0 
L 581 3500 
L 1159 3500 
L 1159 2956 
Q 1366 3272 1645 3428 
Q 1925 3584 2291 3584 
Q 2894 3584 3203 3211 
Q 3513 2838 3513 2113 
z
" transform="scale(0.015625)"/>
       <path id="DejaVuSans-73" d="M 2834 3397 
L 2834 2853 
Q 2591 2978 2328 3040 
Q 2066 3103 1784 3103 
Q 1356 3103 1142 2972 
Q 928 2841 928 2578 
Q 928 2378 1081 2264 
Q 1234 2150 1697 2047 
L 1894 2003 
Q 2506 1872 2764 1633 
Q 3022 1394 3022 966 
Q 3022 478 2636 193 
Q 2250 -91 1575 -91 
Q 1294 -91 989 -36 
Q 684 19 347 128 
L 347 722 
Q 666 556 975 473 
Q 1284 391 1588 391 
Q 1994 391 2212 530 
Q 2431 669 2431 922 
Q 2431 1156 2273 1281 
Q 2116 1406 1581 1522 
L 1381 1569 
Q 847 1681 609 1914 
Q 372 2147 372 2553 
Q 372 3047 722 3315 
Q 1072 3584 1716 3584 
Q 2034 3584 2315 3537 
Q 2597 3491 2834 3397 
z
" transform="scale(0.015625)"/>
       <path id="DejaVuSans-28" d="M 1984 4856 
Q 1566 4138 1362 3434 
Q 1159 2731 1159 2009 
Q 1159 1288 1364 580 
Q 1569 -128 1984 -844 
L 1484 -844 
Q 1016 -109 783 600 
Q 550 1309 550 2009 
Q 550 2706 781 3412 
Q 1013 4119 1484 4856 
L 1984 4856 
z
" transform="scale(0.015625)"/>
       <path id="DejaVuSans-4c" d="M 628 4666 
L 1259 4666 
L 1259 531 
L 3531 531 
L 3531 0 
L 628 0 
L 628 4666 
z
" transform="scale(0.015625)"/>
       <path id="DejaVuSans-6f" d="M 1959 3097 
Q 1497 3097 1228 2736 
Q 959 2375 959 1747 
Q 959 1119 1226 758 
Q 1494 397 1959 397 
Q 2419 397 2687 759 
Q 2956 1122 2956 1747 
Q 2956 2369 2687 2733 
Q 2419 3097 1959 3097 
z
M 1959 3584 
Q 2709 3584 3137 3096 
Q 3566 2609 3566 1747 
Q 3566 888 3137 398 
Q 2709 -91 1959 -91 
Q 1206 -91 779 398 
Q 353 888 353 1747 
Q 353 2609 779 3096 
Q 1206 3584 1959 3584 
z
" transform="scale(0.015625)"/>
       <path id="DejaVuSans-67" d="M 2906 1791 
Q 2906 2416 2648 2759 
Q 2391 3103 1925 3103 
Q 1463 3103 1205 2759 
Q 947 2416 947 1791 
Q 947 1169 1205 825 
Q 1463 481 1925 481 
Q 2391 481 2648 825 
Q 2906 1169 2906 1791 
z
M 3481 434 
Q 3481 -459 3084 -895 
Q 2688 -1331 1869 -1331 
Q 1566 -1331 1297 -1286 
Q 1028 -1241 775 -1147 
L 775 -588 
Q 1028 -725 1275 -790 
Q 1522 -856 1778 -856 
Q 2344 -856 2625 -561 
Q 2906 -266 2906 331 
L 2906 616 
Q 2728 306 2450 153 
Q 2172 0 1784 0 
Q 1141 0 747 490 
Q 353 981 353 1791 
Q 353 2603 747 3093 
Q 1141 3584 1784 3584 
Q 2172 3584 2450 3431 
Q 2728 3278 2906 2969 
L 2906 3500 
L 3481 3500 
L 3481 434 
z
" transform="scale(0.015625)"/>
       <path id="DejaVuSans-53" d="M 3425 4513 
L 3425 3897 
Q 3066 4069 2747 4153 
Q 2428 4238 2131 4238 
Q 1616 4238 1336 4038 
Q 1056 3838 1056 3469 
Q 1056 3159 1242 3001 
Q 1428 2844 1947 2747 
L 2328 2669 
Q 3034 2534 3370 2195 
Q 3706 1856 3706 1288 
Q 3706 609 3251 259 
Q 2797 -91 1919 -91 
Q 1588 -91 1214 -16 
Q 841 59 441 206 
L 441 856 
Q 825 641 1194 531 
Q 1563 422 1919 422 
Q 2459 422 2753 634 
Q 3047 847 3047 1241 
Q 3047 1584 2836 1778 
Q 2625 1972 2144 2069 
L 1759 2144 
Q 1053 2284 737 2584 
Q 422 2884 422 3419 
Q 422 4038 858 4394 
Q 1294 4750 2059 4750 
Q 2388 4750 2728 4690 
Q 3069 4631 3425 4513 
z
" transform="scale(0.015625)"/>
       <path id="DejaVuSans-63" d="M 3122 3366 
L 3122 2828 
Q 2878 2963 2633 3030 
Q 2388 3097 2138 3097 
Q 1578 3097 1268 2742 
Q 959 2388 959 1747 
Q 959 1106 1268 751 
Q 1578 397 2138 397 
Q 2388 397 2633 464 
Q 2878 531 3122 666 
L 3122 134 
Q 2881 22 2623 -34 
Q 2366 -91 2075 -91 
Q 1284 -91 818 406 
Q 353 903 353 1747 
Q 353 2603 823 3093 
Q 1294 3584 2113 3584 
Q 2378 3584 2631 3529 
Q 2884 3475 3122 3366 
z
" transform="scale(0.015625)"/>
       <path id="DejaVuSans-29" d="M 513 4856 
L 1013 4856 
Q 1481 4119 1714 3412 
Q 1947 2706 1947 2009 
Q 1947 1309 1714 600 
Q 1481 -109 1013 -844 
L 513 -844 
Q 928 -128 1133 580 
Q 1338 1288 1338 2009 
Q 1338 2731 1133 3434 
Q 928 4138 513 4856 
z
" transform="scale(0.015625)"/>
      </defs>
      <use xlink:href="#DejaVuSans-43"/>
      <use xlink:href="#DejaVuSans-75" transform="translate(69.824219 0)"/>
      <use xlink:href="#DejaVuSans-6d" transform="translate(133.203125 0)"/>
      <use xlink:href="#DejaVuSans-75" transform="translate(230.615234 0)"/>
      <use xlink:href="#DejaVuSans-6c" transform="translate(293.994141 0)"/>
      <use xlink:href="#DejaVuSans-61" transform="translate(321.777344 0)"/>
      <use xlink:href="#DejaVuSans-74" transform="translate(383.056641 0)"/>
      <use xlink:href="#DejaVuSans-69" transform="translate(422.265625 0)"/>
      <use xlink:href="#DejaVuSans-76" transform="translate(450.048828 0)"/>
      <use xlink:href="#DejaVuSans-65" transform="translate(509.228516 0)"/>
      <use xlink:href="#DejaVuSans-20" transform="translate(570.751953 0)"/>
      <use xlink:href="#DejaVuSans-52" transform="translate(602.539062 0)"/>
      <use xlink:href="#DejaVuSans-65" transform="translate(667.521484 0)"/>
      <use xlink:href="#DejaVuSans-74" transform="translate(729.044922 0)"/>
      <use xlink:href="#DejaVuSans-75" transform="translate(768.253906 0)"/>
      <use xlink:href="#DejaVuSans-72" transform="translate(831.632812 0)"/>
      <use xlink:href="#DejaVuSans-6e" transform="translate(870.996094 0)"/>
      <use xlink:href="#DejaVuSans-73" transform="translate(934.375 0)"/>
      <use xlink:href="#DejaVuSans-20" transform="translate(986.474609 0)"/>
      <use xlink:href="#DejaVuSans-28" transform="translate(1018.261719 0)"/>
      <use xlink:href="#DejaVuSans-4c" transform="translate(1057.275391 0)"/>
      <use xlink:href="#DejaVuSans-6f" transform="translate(1111.238281 0)"/>
      <use xlink:href="#DejaVuSans-67" transform="translate(1172.419922 0)"/>
      <use xlink:href="#DejaVuSans-20" transform="translate(1235.896484 0)"/>
      <use xlink:href="#DejaVuSans-53" transform="translate(1267.683594 0)"/>
      <use xlink:href="#DejaVuSans-63" transform="translate(1331.160156 0)"/>
      <use xlink:href="#DejaVuSans-61" transform="translate(1386.140625 0)"/>
      <use xlink:href="#DejaVuSans-6c" transform="translate(1447.419922 0)"/>
      <use xlink:href="#DejaVuSans-65" transform="translate(1475.203125 0)"/>
      <use xlink:href="#DejaVuSans-29" transform="translate(1536.726562 0)"/>
     </g>
    </g>
   </g>
   <g id="line2d_69">
    <path d="M 78.8625 316.404927 
L 81.255142 315.044977 
L 83.812795 316.744476 
L 86.287942 318.573489 
L 88.845594 316.812429 
L 91.320741 314.924693 
L 93.878393 319.149655 
L 96.436045 319.537731 
L 98.911193 318.37518 
L 101.468845 316.085985 
L 103.943992 311.742736 
L 106.501644 307.949141 
L 109.059296 311.133945 
L 111.369434 308.657374 
L 113.927086 310.611754 
L 116.402233 312.66317 
L 118.959885 307.682841 
L 121.435033 307.935709 
L 123.992685 303.023568 
L 126.550337 303.461413 
L 129.025484 302.607998 
L 131.583136 305.198119 
L 134.058284 299.958232 
L 136.615936 300.490711 
L 139.173588 297.360716 
L 141.483725 297.99817 
L 144.041378 297.153457 
L 146.516525 296.829473 
L 149.074177 302.478117 
L 151.549324 301.941421 
L 154.106976 300.976371 
L 159.139776 292.620776 
L 161.697428 288.735982 
L 164.172575 286.07304 
L 166.730227 286.528374 
L 169.28788 284.410226 
L 171.598017 287.590298 
L 174.155669 286.615713 
L 176.630816 279.896537 
L 179.188469 275.220956 
L 181.663616 275.734384 
L 184.221268 278.507452 
L 186.77892 276.112451 
L 189.254067 271.043989 
L 191.81172 263.87923 
L 194.286867 269.335695 
L 196.844519 267.092917 
L 199.402171 283.023456 
L 201.794813 287.481683 
L 204.352466 286.769353 
L 206.827613 278.55143 
L 209.385265 273.726133 
L 211.860412 281.365683 
L 214.418064 284.278011 
L 216.975717 280.535113 
L 222.008516 313.036806 
L 224.483663 322.855192 
L 227.041315 320.598478 
L 229.598968 324.616982 
L 231.909105 333.289882 
L 234.466757 321.975952 
L 236.941904 314.4574 
L 239.499557 308.706591 
L 241.974704 305.898857 
L 244.532356 297.005269 
L 247.090008 293.842587 
L 249.565155 289.956097 
L 252.122808 290.578744 
L 254.597955 284.619078 
L 257.155607 280.396606 
L 259.713259 285.888221 
L 262.023397 281.933839 
L 264.581049 275.205296 
L 267.056196 272.905914 
L 269.613848 280.785067 
L 272.088995 285.904418 
L 274.646648 280.37186 
L 277.2043 286.859004 
L 279.679447 275.526277 
L 282.237099 270.858205 
L 284.712246 271.18334 
L 287.269899 265.544818 
L 289.827551 263.480323 
L 292.137688 260.582329 
L 294.69534 260.553931 
L 297.170488 255.52896 
L 299.72814 255.890711 
L 302.203287 258.099857 
L 304.760939 258.824394 
L 307.318591 264.115357 
L 309.793739 268.759823 
L 312.351391 257.859862 
L 317.38419 256.671467 
L 319.941842 250.548236 
L 322.334485 245.928747 
L 324.892137 242.985672 
L 327.367284 243.817582 
L 329.924936 251.618863 
L 332.400083 247.210148 
L 334.957736 246.65841 
L 337.515388 244.011902 
L 339.990535 242.817989 
L 342.548187 245.203165 
L 345.023334 245.131311 
L 347.580987 244.519625 
L 350.138639 238.795192 
L 352.448776 237.790851 
L 355.006428 232.813013 
L 357.481576 230.432092 
L 360.039228 227.239784 
L 362.514375 229.104891 
L 365.072027 223.98029 
L 367.629679 226.186371 
L 370.104827 223.141709 
L 372.662479 218.011427 
L 375.137626 215.347066 
L 377.695278 213.201384 
L 380.25293 216.021972 
L 382.563068 210.088367 
L 385.12072 209.309723 
L 387.595867 207.337193 
L 392.628667 200.356706 
L 395.186319 199.529579 
L 397.743971 194.532432 
L 400.219118 196.078134 
L 402.77677 193.383435 
L 405.251918 190.277698 
L 407.80957 191.444117 
L 410.367222 193.108527 
L 412.677359 187.61297 
L 415.235011 189.159622 
L 417.710159 187.637214 
L 420.267811 184.876062 
L 422.742958 187.60387 
L 425.30061 187.105249 
L 427.858262 193.979569 
L 430.33341 196.901348 
L 432.891062 187.407704 
L 435.366209 186.39476 
L 437.923861 189.234357 
L 440.481513 196.983857 
L 442.874156 197.786512 
L 445.431808 190.146621 
L 447.906955 190.766369 
L 450.464607 189.014332 
L 452.939755 188.458131 
L 455.497407 182.888122 
L 458.055059 183.272344 
L 460.530206 181.95643 
L 463.087858 186.336787 
L 465.563006 184.357066 
L 468.120658 182.464769 
L 470.67831 180.036984 
L 472.988447 174.675812 
L 475.546099 174.427136 
L 478.021247 173.200074 
L 480.578899 171.770476 
L 483.054046 171.894834 
L 485.611698 169.142531 
L 488.16935 166.822208 
L 490.644498 164.400499 
L 493.20215 160.208925 
L 495.677297 157.129559 
L 498.234949 156.293948 
L 500.792601 150.059001 
L 503.102739 151.361632 
L 505.660391 153.125329 
L 508.135538 151.930756 
L 510.69319 147.548224 
L 513.168338 147.500263 
L 515.72599 144.285135 
L 518.283642 138.731213 
L 520.758789 137.677851 
L 523.316441 145.24038 
L 525.791589 143.342578 
L 528.349241 151.637763 
L 533.21703 140.266984 
L 535.774683 137.51332 
L 538.24983 136.822539 
L 540.807482 145.182846 
L 543.282629 136.796318 
L 545.840281 134.177376 
L 548.397934 135.635375 
L 550.873081 133.45605 
L 553.430733 129.527359 
L 555.90588 124.937044 
L 558.463532 119.954286 
L 561.021185 119.658094 
L 563.413827 129.118037 
L 565.971479 135.689592 
L 568.446626 121.716112 
L 571.004278 116.725289 
L 573.479426 114.48801 
L 576.037078 111.427731 
L 578.59473 102.897536 
L 581.069877 107.083953 
L 583.627529 113.824654 
L 586.102677 104.17078 
L 588.660329 98.589345 
L 591.217981 97.038813 
L 593.528118 97.56163 
L 596.085771 93.545055 
L 598.560918 90.719576 
L 601.11857 90.99814 
L 603.593717 85.481515 
L 606.151369 82.521988 
L 608.709022 79.083877 
L 611.184169 84.313443 
L 613.741821 75.136248 
L 616.216968 73.513422 
L 618.77462 68.521283 
L 621.332273 75.597164 
L 623.64241 79.82774 
L 626.200062 72.081183 
L 628.675209 81.26284 
L 631.232862 82.092658 
L 633.708009 90.165715 
L 636.265661 79.197156 
L 638.823313 84.99861 
L 641.29846 92.099343 
L 643.856113 84.613 
L 646.33126 82.382756 
L 648.888912 93.299038 
L 651.446564 85.087086 
L 653.756702 84.902355 
L 656.314354 77.901034 
L 658.789501 79.62456 
L 661.347153 75.157874 
L 663.8223 63.986846 
L 666.379953 62.48349 
L 668.937605 61.605884 
L 671.412752 66.103637 
L 673.970404 72.261777 
L 676.445551 61.119405 
L 679.003204 57.086944 
L 681.560856 61.900914 
L 683.953498 55.684742 
L 686.51115 56.066213 
L 688.986297 59.532708 
L 691.54395 53.403576 
L 694.019097 45.286064 
L 696.576749 42.304891 
L 699.134401 40.121127 
L 701.609548 35.993201 
L 704.167201 38.054522 
L 706.642348 27.056818 
L 706.642348 27.056818 
" clip-path="url(#p9044cc13f7)" style="fill: none; stroke: #967969; stroke-opacity: 0.9; stroke-width: 1.8; stroke-linecap: square"/>
   </g>
   <g id="patch_3">
    <path d="M 78.8625 368.45 
L 78.8625 10.8 
" style="fill: none; stroke: #000000; stroke-width: 0.8; stroke-linejoin: miter; stroke-linecap: square"/>
   </g>
   <g id="patch_4">
    <path d="M 709.2 368.45 
L 709.2 10.8 
" style="fill: none; stroke: #000000; stroke-width: 0.8; stroke-linejoin: miter; stroke-linecap: square"/>
   </g>
   <g id="patch_5">
    <path d="M 78.8625 368.45 
L 709.2 368.45 
" style="fill: none; stroke: #000000; stroke-width: 0.8; stroke-linejoin: miter; stroke-linecap: square"/>
   </g>
   <g id="patch_6">
    <path d="M 78.8625 10.8 
L 709.2 10.8 
" style="fill: none; stroke: #000000; stroke-width: 0.8; stroke-linejoin: miter; stroke-linecap: square"/>
   </g>
   <g id="line2d_70">
    <path d="M 78.8625 316.503972 
L 81.255142 315.008751 
L 86.287942 318.369648 
L 88.845594 316.893357 
L 91.320741 314.806593 
L 93.878393 318.453036 
L 96.436045 318.015467 
L 98.911193 316.848635 
L 101.468845 315.206105 
L 103.943992 310.909154 
L 106.501644 307.284244 
L 109.059296 309.957859 
L 111.369434 307.701618 
L 113.927086 309.636865 
L 116.402233 311.711362 
L 118.959885 308.317946 
L 121.435033 308.164293 
L 123.992685 304.208847 
L 126.550337 305.20167 
L 129.025484 304.32828 
L 131.583136 306.149454 
L 134.058284 302.127757 
L 136.615936 302.08988 
L 139.173588 299.258785 
L 141.483725 298.965151 
L 144.041378 297.624925 
L 146.516525 296.180389 
L 149.074177 299.343785 
L 151.549324 299.197313 
L 154.106976 298.53063 
L 156.664629 295.983338 
L 159.139776 293.227236 
L 161.697428 289.753767 
L 164.172575 287.712672 
L 169.28788 284.577764 
L 171.598017 286.717818 
L 174.155669 285.512687 
L 176.630816 280.817198 
L 179.188469 277.101683 
L 181.663616 278.916406 
L 184.221268 282.328457 
L 186.77892 280.716817 
L 189.254067 276.73918 
L 191.81172 275.029528 
L 194.286867 279.656025 
L 196.844519 280.410122 
L 199.402171 287.110867 
L 201.794813 290.68816 
L 204.352466 291.1571 
L 206.827613 286.005695 
L 209.385265 284.611451 
L 211.860412 294.152209 
L 214.418064 295.066862 
L 216.975717 293.511003 
L 219.450864 303.621216 
L 222.008516 323.539062 
L 224.483663 331.604866 
L 227.041315 330.458099 
L 229.598968 339.996979 
L 231.909105 352.193182 
L 234.466757 343.096579 
L 236.941904 333.195068 
L 239.499557 327.299404 
L 241.974704 327.084547 
L 244.532356 319.186269 
L 247.090008 315.344143 
L 249.565155 311.375136 
L 252.122808 313.406416 
L 254.597955 307.095987 
L 257.155607 305.02348 
L 259.713259 308.992215 
L 262.023397 305.687575 
L 264.581049 299.33987 
L 267.056196 297.643097 
L 269.613848 306.65819 
L 272.088995 312.482918 
L 274.646648 305.147356 
L 277.2043 310.151159 
L 279.679447 300.89099 
L 282.237099 296.845294 
L 284.712246 296.831628 
L 287.269899 289.823427 
L 289.827551 287.285902 
L 292.137688 283.636806 
L 294.69534 283.593745 
L 297.170488 280.432201 
L 299.72814 281.665428 
L 302.203287 283.486409 
L 304.760939 285.711791 
L 307.318591 291.762574 
L 309.793739 299.658645 
L 312.351391 288.422487 
L 314.826538 288.661988 
L 317.38419 287.559524 
L 322.334485 278.224606 
L 324.892137 274.717103 
L 327.367284 275.398903 
L 329.924936 282.113517 
L 332.400083 277.739571 
L 334.957736 276.245365 
L 337.515388 273.83249 
L 339.990535 271.068529 
L 342.548187 273.087545 
L 345.023334 272.461117 
L 347.580987 271.478244 
L 350.138639 266.00769 
L 352.448776 264.546957 
L 355.006428 260.558604 
L 357.481576 258.491292 
L 360.039228 255.986636 
L 362.514375 257.451152 
L 365.072027 252.074318 
L 367.629679 255.258012 
L 370.104827 251.913158 
L 372.662479 247.044607 
L 375.137626 243.79268 
L 377.695278 241.08418 
L 380.25293 244.896074 
L 382.563068 240.050461 
L 387.595867 238.346137 
L 390.153519 235.832361 
L 392.628667 233.617468 
L 395.186319 235.121897 
L 397.743971 230.872767 
L 400.219118 232.402309 
L 402.77677 229.788178 
L 405.251918 226.913242 
L 407.80957 227.186491 
L 410.367222 230.488398 
L 412.677359 224.434643 
L 415.235011 226.16164 
L 417.710159 225.127217 
L 420.267811 223.743128 
L 422.742958 225.860863 
L 425.30061 223.614585 
L 427.858262 230.356041 
L 430.33341 233.070219 
L 432.891062 224.297162 
L 435.366209 223.975561 
L 437.923861 225.697747 
L 440.481513 231.211367 
L 442.874156 231.357617 
L 445.431808 224.247365 
L 447.906955 223.828073 
L 450.464607 221.900036 
L 452.939755 221.619582 
L 455.497407 217.69755 
L 458.055059 217.545477 
L 460.530206 217.525234 
L 463.087858 219.519458 
L 465.563006 215.579969 
L 470.67831 211.424325 
L 472.988447 207.205967 
L 475.546099 207.079857 
L 478.021247 205.972926 
L 480.578899 204.459083 
L 483.054046 203.785019 
L 485.611698 201.580058 
L 488.16935 201.248853 
L 490.644498 199.036994 
L 493.20215 196.538184 
L 495.677297 193.265696 
L 498.234949 192.067897 
L 500.792601 186.036679 
L 503.102739 190.104683 
L 505.660391 192.893362 
L 508.135538 192.478487 
L 510.69319 189.900588 
L 513.168338 189.235922 
L 515.72599 185.277666 
L 518.283642 181.804143 
L 520.758789 181.189274 
L 523.316441 188.858801 
L 525.791589 186.673443 
L 528.349241 196.924585 
L 530.906893 188.573901 
L 533.21703 185.150282 
L 535.774683 183.065485 
L 538.24983 178.765769 
L 540.807482 185.878366 
L 543.282629 178.500683 
L 545.840281 176.954733 
L 548.397934 178.684559 
L 550.873081 176.676367 
L 553.430733 174.355107 
L 555.90588 170.492536 
L 558.463532 167.271216 
L 561.021185 167.313706 
L 563.413827 176.61977 
L 565.971479 190.901287 
L 568.446626 177.834779 
L 571.004278 172.794418 
L 573.479426 170.661082 
L 576.037078 164.718897 
L 578.59473 157.199315 
L 581.069877 161.395775 
L 583.627529 164.31554 
L 586.102677 153.062629 
L 588.660329 148.97559 
L 591.217981 150.074866 
L 593.528118 147.128176 
L 596.085771 142.484777 
L 598.560918 136.852328 
L 601.11857 136.098363 
L 606.151369 131.055226 
L 608.709022 127.81048 
L 611.184169 132.96975 
L 613.741821 125.634108 
L 616.216968 126.387316 
L 618.77462 121.638021 
L 621.332273 127.393976 
L 623.64241 130.687149 
L 626.200062 126.737748 
L 628.675209 136.621763 
L 631.232862 136.423264 
L 633.708009 145.755886 
L 636.265661 136.201426 
L 638.823313 140.711861 
L 641.29846 151.178714 
L 643.856113 142.745182 
L 646.33126 136.854325 
L 648.888912 143.28271 
L 651.446564 136.681197 
L 653.756702 139.357195 
L 656.314354 135.451223 
L 658.789501 133.773377 
L 661.347153 133.303508 
L 663.8223 126.37213 
L 666.379953 122.946822 
L 668.937605 124.685427 
L 671.412752 129.97757 
L 673.970404 132.27969 
L 676.445551 122.81241 
L 679.003204 117.999451 
L 681.560856 116.194195 
L 683.953498 110.558993 
L 686.51115 107.128421 
L 688.986297 111.646048 
L 691.54395 106.403439 
L 694.019097 102.584498 
L 696.576749 101.273816 
L 699.134401 98.677497 
L 701.609548 96.388262 
L 704.167201 97.375076 
L 706.642348 91.19571 
L 709.2 93.353906 
L 709.2 93.353906 
" clip-path="url(#p9044cc13f7)" style="fill: none; stroke-dasharray: 6.66,2.88; stroke-dashoffset: 0; stroke: #000000; stroke-width: 1.8"/>
   </g>
   <g id="legend_1">
    <g id="patch_7">
     <path d="M 91.4625 78.04125 
L 225.458438 78.04125 
Q 229.058438 78.04125 229.058438 74.44125 
L 229.058438 23.4 
Q 229.058438 19.8 225.458438 19.8 
L 91.4625 19.8 
Q 87.8625 19.8 87.8625 23.4 
L 87.8625 74.44125 
Q 87.8625 78.04125 91.4625 78.04125 
z
" style="fill: #ffffff; opacity: 0.8; stroke: #cccccc; stroke-linejoin: miter"/>
    </g>
    <g id="line2d_71">
     <path d="M 95.0625 34.377188 
L 113.0625 34.377188 
L 131.0625 34.377188 
" style="fill: none; stroke: #967969; stroke-opacity: 0.9; stroke-width: 1.8; stroke-linecap: square"/>
    </g>
    <g id="text_30">
     <!-- ML -->
     <g transform="translate(145.4625 40.677188) scale(0.18 -0.18)">
      <defs>
       <path id="DejaVuSans-4d" d="M 628 4666 
L 1569 4666 
L 2759 1491 
L 3956 4666 
L 4897 4666 
L 4897 0 
L 4281 0 
L 4281 4097 
L 3078 897 
L 2444 897 
L 1241 4097 
L 1241 0 
L 628 0 
L 628 4666 
z
" transform="scale(0.015625)"/>
      </defs>
      <use xlink:href="#DejaVuSans-4d"/>
      <use xlink:href="#DejaVuSans-4c" transform="translate(86.279297 0)"/>
     </g>
    </g>
    <g id="line2d_72">
     <path d="M 95.0625 60.797813 
L 113.0625 60.797813 
L 131.0625 60.797813 
" style="fill: none; stroke-dasharray: 6.66,2.88; stroke-dashoffset: 0; stroke: #000000; stroke-width: 1.8"/>
    </g>
    <g id="text_31">
     <!-- S&amp;P 500 -->
     <g transform="translate(145.4625 67.097813) scale(0.18 -0.18)">
      <defs>
       <path id="DejaVuSans-26" d="M 1556 2509 
Q 1272 2256 1139 2004 
Q 1006 1753 1006 1478 
Q 1006 1022 1337 719 
Q 1669 416 2169 416 
Q 2466 416 2725 514 
Q 2984 613 3213 813 
L 1556 2509 
z
M 1997 2859 
L 3584 1234 
Q 3769 1513 3872 1830 
Q 3975 2147 3994 2503 
L 4575 2503 
Q 4538 2091 4375 1687 
Q 4213 1284 3922 891 
L 4794 0 
L 4006 0 
L 3559 459 
Q 3234 181 2878 45 
Q 2522 -91 2113 -91 
Q 1359 -91 881 339 
Q 403 769 403 1441 
Q 403 1841 612 2192 
Q 822 2544 1241 2853 
Q 1091 3050 1012 3245 
Q 934 3441 934 3628 
Q 934 4134 1281 4442 
Q 1628 4750 2203 4750 
Q 2463 4750 2720 4694 
Q 2978 4638 3244 4525 
L 3244 3956 
Q 2972 4103 2725 4179 
Q 2478 4256 2266 4256 
Q 1938 4256 1733 4082 
Q 1528 3909 1528 3634 
Q 1528 3475 1620 3314 
Q 1713 3153 1997 2859 
z
" transform="scale(0.015625)"/>
       <path id="DejaVuSans-50" d="M 1259 4147 
L 1259 2394 
L 2053 2394 
Q 2494 2394 2734 2622 
Q 2975 2850 2975 3272 
Q 2975 3691 2734 3919 
Q 2494 4147 2053 4147 
L 1259 4147 
z
M 628 4666 
L 2053 4666 
Q 2838 4666 3239 4311 
Q 3641 3956 3641 3272 
Q 3641 2581 3239 2228 
Q 2838 1875 2053 1875 
L 1259 1875 
L 1259 0 
L 628 0 
L 628 4666 
z
" transform="scale(0.015625)"/>
      </defs>
      <use xlink:href="#DejaVuSans-53"/>
      <use xlink:href="#DejaVuSans-26" transform="translate(63.476562 0)"/>
      <use xlink:href="#DejaVuSans-50" transform="translate(141.455078 0)"/>
      <use xlink:href="#DejaVuSans-20" transform="translate(201.757812 0)"/>
      <use xlink:href="#DejaVuSans-35" transform="translate(233.544922 0)"/>
      <use xlink:href="#DejaVuSans-30" transform="translate(297.167969 0)"/>
      <use xlink:href="#DejaVuSans-30" transform="translate(360.791016 0)"/>
     </g>
    </g>
   </g>
  </g>
 </g>
 <defs>
  <clipPath id="p9044cc13f7">
   <rect x="78.8625" y="10.8" width="630.3375" height="357.65"/>
  </clipPath>
 </defs>
</svg>
